<svg xmlns="http://www.w3.org/2000/svg" width="540" height="360"><path fill="#ffc72c" d="M540 0H0v360h540Z"/><path fill="#001489" d="M180 0H0v360h180Zm360 0H360v360h180Z"/><path d="M270 90c-2.145 14.196-7.237 22.232-17.422 31.875 2.577-.91 4.383-1.219 5.878-1.219 1.147 0 2.11.182 3.1.415 2.008.472 2.949 2.01 2.816 3.483l-1.643 87.858-18.193-.036c-.402-28.527-12.598-64.654-17.422-75.904-3.62-7.633.468-11.383 5.493-11.784-8.227-6.5-33.543-19.959-40.411-19.959q-.1 0-.196.003c8.04 7.5 23.662 28.897 32.566 59.865 6.702 23.303 9.315 38.104 9.315 62.48l28.6-.017-.791 42.94h16.619l-.791-42.94 28.599.016c0-24.375 2.613-39.176 9.317-62.479 8.904-30.968 24.523-52.365 32.566-59.865q-.096-.004-.195-.003c-6.867 0-32.184 13.46-40.414 19.96 5.027.4 9.113 4.15 5.496 11.783-4.824 11.25-17.022 47.377-17.424 75.904l-18.193.036-1.641-87.858c-.135-1.474.805-3.01 2.814-3.483.99-.233 1.953-.415 3.1-.415 1.495 0 3.3.31 5.879 1.22C277.236 112.231 272.145 104.195 270 90"/></svg>