<svg xmlns="http://www.w3.org/2000/svg" width="540" height="360"><path fill="#f9423a" d="M540 0H0v360h540z"/><path fill="#7bafd4" d="M540 0H0v79h540zm0 281H0v79h540z"/><path fill="#ffe900" d="M540 270.004H0v22h540zm0-202.001H0v22h540z"/><path fill="#fff" stroke="#000" stroke-miterlimit="10" stroke-width=".5" d="M429.219 189.094c.66 0 1.195 1.15 1.195 2.57 0 1.422-.535 2.573-1.195 2.573h60.563v-5.143Z"/><path fill="#7f3035" stroke="#000" stroke-miterlimit="10" stroke-width=".5" d="M452.014 193.075c0-2.048-1.706-4.323-3.81-5.46-2.106-1.138-3.47-3.186-3.47-3.186-3.42.09-9.636.872-15.108 2.36-2.163.59-2.942 12.612-1.597 12.948 0 0 7.903 2.522 15.806 2.186 5.041-.214 8.18-5.337 8.18-8.848"/><path d="M429.627 187.714c.334-.513 2.224 1.598 1.91 5.045-.313 3.447-2.751 7.132-3.087 6.004s-1.01-7.686 1.177-11.049"/><path fill="#fff" stroke="#000" stroke-miterlimit="10" stroke-width=".5" d="M76.961 171.608h340.307v5.143H76.961Zm358.307-12.414H103.704v-5h331.564z"/><path fill="#7c878e" stroke="#000" stroke-miterlimit="10" stroke-width=".5" d="m414.701 176.79 2.844 2.61 24.458-5.22-24.458-5.221-2.844 2.61Zm17.486-17.486 2.844 2.61 24.458-5.22-24.458-5.222-2.844 2.611Z"/><path fill="none" stroke="#000" stroke-miterlimit="10" stroke-width=".479" d="M430.4 155.421v3.844m-1.714-3.844v3.844m-1.715-3.844v3.844m-1.714-3.844v3.844m-1.714-3.844v3.844m-1.715-3.844v3.844m-1.714-3.844v3.844"/><path fill="#fff" stroke="#000" stroke-miterlimit="10" stroke-width=".5" d="M429.219 189.094H50.218v5.143h379c.66 0 1.196-1.151 1.196-2.572 0-1.42-.535-2.571-1.195-2.571"/><path d="m92.65 189.094.683 1.138s7.28 2.047 10.351 5.005c0 0-1.706 3.185 1.252 7.167 0 0-.228 1.25-1.479 1.365 0 0 1.934 3.07 1.251 5.574 0 0-.3.24-.946.24a3.3 3.3 0 0 1-.874-.126s1.934 1.365 2.048 3.98c0 0-2.958-.454-3.982-1.25 0 0 1.024 1.024 1.48 2.162 0 0-4.096-.114-4.779-.797 0 0-.113 1.707-1.934 3.299 0 0-1.82-1.934-2.16-3.754 0 0-.797.683-1.707.796 0 0-1.138-.91-1.252-1.251 0 0-.796 1.25-1.592 1.934 0 0-.683 1.934.568 3.185 0 0-.482.395-1.174.395-.423 0-.924-.147-1.442-.622 0 0-1.086.25-2.04.25q-.241.001-.463-.023s.91-4.095.57-5.574c0 0-.36-1.438-1.08-1.438a.6.6 0 0 0-.286.073c-.91.455-2.958 1.706-3.64 3.299 0 0-1.252-.341-1.479-2.39 0 0-1.707 1.707-3.185 1.935 0 0-1.252-2.048-.683-4.095 0 0-.197.049-.507.049-.743 0-2.136-.283-3.019-2.211 0 0 3.071-1.024 3.64-2.161 0 0-1.252-.683-1.593-2.275 0 0 2.617-.455 3.982-2.617 0 0-.087.008-.233.008-.655 0-2.508-.153-3.066-1.828 0 0 .455-1.251 1.82-1.593 0 0-1.365-1.592-1.934-2.275 0 0 1.365-.455 2.275-1.024.91-.568 5.82-2.277 8.532-2.616.91-.114 1.593-1.934 1.593-1.934z"/><path fill="#7c878e" d="M86.981 191.068a.515.515 0 0 1 .306.929l-.02.014c-.879.587-1.783.959-2.698 1.316a33 33 0 0 1-2.775.915 38 38 0 0 1-2.83.693c-.882.169-1.76.335-2.696.335q-.12 0-.241-.004a.257.257 0 0 1 .004-.513h.024c.901-.012 1.851-.223 2.769-.445.923-.23 1.838-.503 2.742-.803a33 33 0 0 0 2.664-1.011c.86-.377 1.726-.795 2.427-1.312l.019-.013a.5.5 0 0 1 .305-.101m-.584 1.594q.074 0 .149.022a.514.514 0 0 1 .344.64l-.004.014c-1.131 3.43-3.248 6.404-5.76 8.867a33.4 33.4 0 0 1-4.037 3.4c-1.451 1.002-2.898 1.982-4.61 2.618a.256.256 0 0 1-.185-.479l.03-.011c1.547-.618 3.006-1.636 4.385-2.647a32.5 32.5 0 0 0 3.867-3.423c2.394-2.46 4.347-5.386 5.325-8.622l.004-.013a.51.51 0 0 1 .492-.366"/><path fill="#7c878e" d="M85.842 193.461a.515.515 0 0 1 .256.961l-.015.008-.02.011c-1.012.531-2.017 1.188-2.881 1.945-.848.721-1.527 1.778-2.422 2.623a44 44 0 0 1-2.657 2.486c-.936.78-1.831 1.576-2.977 2.165a.257.257 0 0 1-.243-.452l.027-.015c.98-.547 1.888-1.386 2.765-2.177a44 44 0 0 0 2.524-2.537c.4-.438.789-.888 1.144-1.348.344-.472.78-.994 1.232-1.409.918-.86 1.917-1.567 3.012-2.193a.5.5 0 0 1 .255-.068"/><path fill="#7c878e" d="M83.222 194.935a.515.515 0 0 1 .376.866l-.021.021c-1.128 1.077-2.4 2.081-3.917 2.635a6.9 6.9 0 0 1-2.336.422h-.018l-.09.001c-.764 0-1.507-.128-2.214-.202a.26.26 0 0 1-.238-.276.264.264 0 0 1 .265-.237h.005c.607.03 1.19.088 1.76.088q.247 0 .49-.016a6.1 6.1 0 0 0 2.094-.498c1.329-.57 2.456-1.559 3.46-2.633l.008-.008a.52.52 0 0 1 .376-.163m5.432-2.183c.209 0 .406.13.482.337l.003.008c.394 1.136.284 2.306-.076 3.302-.335 1.014-.846 1.921-1.387 2.795-1.115 1.727-2.439 3.273-3.821 4.75a62 62 0 0 1-4.374 4.192l-1.165.975a9 9 0 0 1-.629.477 4 4 0 0 0-.559.42c-.696.626-1.199 1.498-1.286 2.427a.256.256 0 0 1-.255.234l-.024-.002a.257.257 0 0 1-.233-.275c.08-1.084.631-2.082 1.406-2.81a4.6 4.6 0 0 1 .634-.497q.271-.2.56-.447l1.125-.983a61 61 0 0 0 4.233-4.234c1.329-1.48 2.595-3.03 3.625-4.703.995-1.628 1.865-3.615 1.285-5.205l-.026-.072a.513.513 0 0 1 .482-.689"/><path fill="#7c878e" d="M90.03 192.204c.225 0 .432.15.495.377l.003.011c.246.972.408 1.908.55 2.866l.187 1.433c.046.213.008.55-.014.835-.03.293-.145.513-.216.772-.778 1.884-1.97 3.39-3.131 4.92-2.373 3.014-4.975 5.817-7.576 8.6a.26.26 0 0 1-.364.016.26.26 0 0 1-.018-.362c2.54-2.842 5.068-5.692 7.345-8.723 1.105-1.514 2.258-3.087 2.896-4.75.147-.453.213-.738.153-1.192l-.213-1.398a28 28 0 0 0-.588-2.734l-.005-.019a.515.515 0 0 1 .496-.652m1.253 8.639c.261 0 .485.198.511.463l.002.018c.19 2.932-.754 5.68-2.086 8.14-.733 1.247-1.565 2.271-2.249 3.465-.692 1.164-1.36 2.37-1.724 3.642l-.003.01a.257.257 0 0 1-.496-.134c.351-1.388.998-2.628 1.667-3.84.645-1.214 1.508-2.369 2.128-3.513 1.202-2.366 2-5.087 1.74-7.66l-.002-.025a.513.513 0 0 1 .512-.566"/><path fill="#7c878e" d="M89.464 199.718c.253 0 .474.187.51.445l.001.02c.16 1.605-.195 3.207-.783 4.623-.565 1.432-1.328 2.743-1.808 4.106-.495 1.34-.468 2.83-.239 4.274.252 1.421.663 2.93 1.46 4.066l.025.036a.255.255 0 0 1-.21.402.26.26 0 0 1-.206-.103c-.967-1.308-1.377-2.787-1.702-4.288-.282-1.496-.368-3.112.14-4.629.48-1.485 1.205-2.807 1.7-4.185.52-1.366.776-2.793.602-4.183a.513.513 0 0 1 .51-.584m2.498-.567c.174 0 .343.088.44.247l.01.015c1.42 2.51 1.902 5.388 1.945 8.16.061 1.366-.148 2.842.033 4.046.15.596.52 1.155.9 1.725.357.568.855 1.194.801 2.051a.256.256 0 0 1-.256.24h-.016a.257.257 0 0 1-.24-.253v-.034c-.01-1.173-1.408-2.099-1.81-3.564-.267-1.512-.07-2.81-.183-4.186-.125-2.698-.684-5.4-2.063-7.665a.514.514 0 0 1 .44-.782"/><path fill="#7c878e" d="M89.502 191.41a.5.5 0 0 1 .372.158l.008.01c1.4 1.536 2.346 3.307 3.202 5.093.845 1.795 1.55 3.641 2.19 5.505.622 1.866 1.24 3.75 1.62 5.687.221.903.606 1.804 1.066 2.638.465.823 1.02 1.651 1.764 2.15l.013.008a.256.256 0 0 1-.143.47.26.26 0 0 1-.14-.04c-.908-.588-1.48-1.447-1.996-2.302-.503-.87-.92-1.778-1.19-2.774-.416-1.902-1.065-3.744-1.72-5.58-.674-1.828-1.41-3.635-2.274-5.37-.867-1.722-1.846-3.424-3.125-4.765l-.019-.02a.514.514 0 0 1 .372-.869m6.788 6.485c.283 0 .513.227.515.51v.027c-.06 2.419.49 4.865 1.543 7.09 1.052 2.204 2.466 4.347 4.35 5.889l.017.014a.257.257 0 0 1-.318.403c-2.068-1.582-3.558-3.706-4.743-5.97-1.172-2.276-1.854-4.835-1.878-7.444a.515.515 0 0 1 .51-.52z"/><path fill="#7c878e" d="M91.95 192.21a.5.5 0 0 1 .235.059c1.6.825 2.734 2.13 3.711 3.47.982 1.349 1.776 2.8 2.507 4.274q.54 1.11 1.01 2.25c.312.796.56 1.472 1.072 2.087.476.62 1.054 1.18 1.644 1.737.572.59 1.25 1.022 1.686 1.923a.254.254 0 0 1-.457.225l-.03-.062c-.29-.577-1.01-1.122-1.59-1.66-.609-.545-1.224-1.105-1.758-1.765-.566-.63-.92-1.495-1.217-2.206a41 41 0 0 0-1.049-2.182c-.753-1.424-1.568-2.821-2.54-4.084-.96-1.26-2.085-2.435-3.425-3.076l-.022-.011a.515.515 0 0 1 .223-.978"/><path fill="#7c878e" d="M91.289 191.644q.052 0 .107.01c.84.18 1.405.53 2.01.876.593.35 1.158.728 1.71 1.119a41 41 0 0 1 3.184 2.51c.505.453 1.007.905 1.477 1.409.495.482.883 1.134 1.222 1.652.733 1.034 1.61 2.204 2.643 2.709l.075.037a.254.254 0 0 1 .116.339.254.254 0 0 1-.333.119c-1.407-.643-2.176-1.764-3.027-2.834-.708-1.182-1.631-1.968-2.673-2.842a40 40 0 0 0-3.191-2.356c-1.071-.69-2.307-1.486-3.341-1.716l-.09-.02a.512.512 0 0 1 .11-1.012"/><path fill="#7c878e" d="M92.744 191.992h.02c3.359.098 6.369 1.63 9.007 3.367.12.076.155.235.079.355a.26.26 0 0 1-.218.117.3.3 0 0 1-.13-.033c-2.617-1.535-5.496-2.781-8.45-2.781a9 9 0 0 0-.288.004h-.015a.515.515 0 0 1-.015-1.03z"/><path d="M457.247 193.417c1.365 1.137 4.095 1.365 5.347 1.365 0 0-.595 2.08.436 2.08q.11 0 .246-.032c1.365-.342 2.503-.455 2.844-1.252 0 0 3.097 1.548 7.089 1.548q.706.002 1.443-.07s-1.365 2.163.569 2.276c0 0-1.251 2.389.227 3.072 0 0-.327.054-.786.054-.688 0-1.671-.122-2.285-.737l1.365 1.934s-1.82 1.024-.91 1.82c.645.565 1.634.786 2.397.786.314 0 .59-.037.788-.103 0 0-2.616 1.365-1.48 2.389.714.64 1.65.836 2.447.836.474 0 .897-.07 1.195-.154 0 0-1.503 3.65-3.675 3.65q-.096 0-.193-.01s.227 1.593-.796 3.186c0 0-.223.028-.568.028-.862 0-2.488-.174-3.3-1.393 0 0-.114 1.706-1.252 2.389 0 0-3.412-.228-3.867-4.551 0 0-1.48 3.186-1.593 5.233-.114 2.048-.796 3.868-2.73 4.55 0 0-2.048-.454-1.707-3.753l-2.161.227s-.796-.682-.57-2.161c0 0-.681 1.592-1.478 2.275 0 0-1.82 0-2.275-.341 0 0 .455 2.502-1.137 4.89 0 0-.22-2.62-1.404-2.62l-.075.005q-.135.012-.274.012c-1.198 0-2.57-.68-2.57-1.946 0 0-1.077 1.683-3.49 1.683-.724 0-1.568-.152-2.54-.546 0 0-.455-2.275.456-2.73.878-.44.59-1.94-.25-1.94q-.044 0-.092.006s-.341-3.412 1.024-4.436.34-3.413.34-3.413-2.274.569-2.388 3.07c0 0-3.3-.681-1.82-5.118 0 0-.774.084-1.785.084-1.617 0-3.841-.215-4.471-1.335 0 0 .968.08 2.106.08 1.564 0 3.45-.152 3.58-.876.229-1.252-1.932-4.437 1.935-5.574 3.116-.917 8.37-1.464 11.665-1.464.796 0 1.477.032 1.986.098 1.077.14 1.903.243 2.51.243.87 0 1.29-.21 1.358-.811.114-1.024.569-2.503.569-2.503"/><path fill="#7c878e" d="M454.64 197.427q.09 0 .181.033a.516.516 0 0 1 .293.682c-.505 1.194-1.104 2.316-2.11 3.244-.44.427-1.153.761-1.81.761q-.07 0-.14-.005h-.177c-.54 0-1.08.018-1.617.064-2.348.194-4.797.953-6.255 2.854a.256.256 0 0 1-.36.048.26.26 0 0 1-.05-.357c.743-1.033 1.795-1.835 2.95-2.35 1.152-.535 2.397-.802 3.635-.962a20 20 0 0 1 1.867-.133l.026.001c.535 0 .925-.21 1.33-.59.78-.757 1.345-1.864 1.744-2.926l.011-.03a.515.515 0 0 1 .482-.334m9.63.023a.3.3 0 0 1 .06.004c.943.108 1.71.488 2.425.907.713.425 1.369.913 1.993 1.433 1.247 1.041 2.357 2.218 3.37 3.467.09.11.073.272-.037.362a.26.26 0 0 1-.355-.03c-1.057-1.168-2.205-2.259-3.457-3.194-1.23-.897-2.651-1.815-4-1.919l-.037-.003a.514.514 0 0 1 .039-1.027"/><path fill="#7c878e" d="M453.161 198.124a.514.514 0 0 1 .398.841l-.019.021c-1.639 1.788-3.324 3.507-5.237 5.035-.485.396-1.026.695-1.434 1.056a13 13 0 0 0-1.229 1.245 31 31 0 0 0-2.17 2.82.256.256 0 0 1-.356.073.263.263 0 0 1-.076-.353 31 31 0 0 1 2.112-2.956c.386-.47.79-.93 1.25-1.357.48-.448.99-.748 1.42-1.129 1.783-1.53 3.41-3.306 4.943-5.108a.51.51 0 0 1 .398-.188m3.748-.803q.051 0 .102.01a.515.515 0 0 1 .403.606l-.004.017a9.2 9.2 0 0 1-2.21 4.151c-.51.584-1.273 1.077-1.87 1.421-.623.393-1.24.808-1.841 1.243a35 35 0 0 0-3.451 2.8c-1.046 1.018-2.112 2.121-2.604 3.442l-.008.021a.256.256 0 0 1-.33.152.26.26 0 0 1-.153-.325c.526-1.527 1.602-2.663 2.648-3.752a36 36 0 0 1 3.439-2.958q.899-.689 1.846-1.325c.683-.427 1.182-.772 1.66-1.327a8.3 8.3 0 0 0 1.865-3.745l.004-.018a.515.515 0 0 1 .504-.413m5.432.246c1.03 0 1.774.551 2.37 1.074.605.544 1.11 1.151 1.578 1.774.932 1.242 1.712 2.594 2.463 3.894.785 1.276 1.661 2.512 2.652 3.636.495.56 1.018 1.098 1.591 1.558.55.44 1.197.836 1.808.836h.046l.04-.002h.007a.256.256 0 0 1 .013.512l-.125.004c-.867 0-1.545-.46-2.143-.892-.628-.476-1.184-1.02-1.714-1.584-1.055-1.133-1.982-2.366-2.829-3.659-.809-1.313-1.592-2.584-2.522-3.754-.462-.58-.955-1.135-1.497-1.593-.51-.446-1.11-.779-1.62-.779l-.063.002-.03.002h-.03a.514.514 0 0 1-.028-1.028h.028z"/><path fill="#7c878e" d="M458.008 197.517c.146 0 .292.062.394.182q.02.024.037.05c.46.7.402 1.236.43 1.808a6.7 6.7 0 0 1-.243 1.635 7 7 0 0 1-1.555 2.866c-1.451 1.524-2.998 2.845-4.518 4.225-1.511 1.381-3.076 2.697-4.405 4.228-1.445 1.514-2.991 2.846-4.765 3.994a.26.26 0 0 1-.355-.076.256.256 0 0 1 .07-.35l.03-.02c1.638-1.11 3.198-2.5 4.542-3.978 1.328-1.593 2.883-2.957 4.362-4.367 1.484-1.402 3.024-2.783 4.367-4.255a6 6 0 0 0 1.294-2.51 5.7 5.7 0 0 0 .18-1.399c.006-.433-.093-.988-.225-1.144l-.033-.039a.515.515 0 0 1 .393-.85m5.034.612a.5.5 0 0 1 .357.144c1.2 1.159 2.22 2.497 2.965 3.995.367.75.662 1.542.851 2.364.155.852.302 1.526.581 2.293a21 21 0 0 0 2.098 4.247c.858 1.317 1.865 2.601 3.177 3.407l.012.007a.257.257 0 0 1-.263.441c-1.473-.854-2.533-2.163-3.462-3.499a21.8 21.8 0 0 1-2.286-4.337c-.3-.739-.52-1.637-.67-2.366a10.2 10.2 0 0 0-.84-2.149c-.727-1.368-1.72-2.603-2.865-3.651a.513.513 0 0 1 .345-.896m-2.968-.918c.113 0 .228.037.323.114.003.003.01.007.012.011 1.385 1.192 2.186 2.72 2.908 4.23a32.4 32.4 0 0 1 1.71 4.71c.426 1.597.881 3.163 1.471 4.688.592 1.512 1.287 3.013 2.317 4.237a.257.257 0 0 1-.02.363.25.25 0 0 1-.168.063.27.27 0 0 1-.196-.084c-1.135-1.283-1.882-2.808-2.53-4.34-.64-1.538-1.149-3.132-1.616-4.71a31.4 31.4 0 0 0-1.78-4.54c-.719-1.432-1.569-2.87-2.733-3.81l-.02-.017a.516.516 0 0 1 .322-.915"/><path fill="#7c878e" d="M459.505 198.231c.13 0 .259.049.359.148.737.723 1.008 1.596 1.194 2.447.158.861.193 1.743-.026 2.634-.301.958-.805 1.543-1.227 2.263l-1.31 2.061c-.854 1.378-1.67 2.779-2.337 4.241-.658 1.45-1.2 3.024-1.046 4.556l.003.027a.257.257 0 0 1-.23.281l-.026.001a.256.256 0 0 1-.254-.224c-.22-1.74.333-3.385.964-4.898.647-1.523 1.44-2.968 2.267-4.383l1.259-2.103c.39-.682.908-1.424 1.064-2.038.279-1.376-.068-3.195-.978-4.096l-.038-.038a.513.513 0 0 1 .362-.879m3.65 7.938a.516.516 0 0 1 .509.442c.13.912.047 1.649.003 2.439l-.215 2.312c-.146 1.527-.363 3.073-.374 4.563v.021a.257.257 0 0 1-.257.255h-.001a.257.257 0 0 1-.255-.244c-.077-1.59.059-3.112.118-4.653l.085-2.295c.009-.745.019-1.558-.106-2.167l-.011-.054a.513.513 0 0 1 .504-.619"/><path fill="#7c878e" d="M461.11 199.833c.185 0 .364.1.456.276.002.003.007.014.01.017.723 1.522 1.004 3.208.897 4.854-.07 1.633-.677 3.316-1.582 4.622-.844 1.349-1.718 2.657-2.504 4.013-.73 1.339-1.608 2.796-1.568 4.224l.001.054a.256.256 0 0 1-.248.263h-.007a.256.256 0 0 1-.255-.244c-.079-1.786.82-3.193 1.516-4.61.762-1.401 1.608-2.746 2.404-4.098.854-1.328 1.298-2.734 1.345-4.271.058-1.506-.248-3.03-.92-4.347a.514.514 0 0 1 .455-.753"/><path fill="#7c878e" d="M459.288 199.832c.206 0 .4.126.478.325.401 1.019.34 2.036.124 2.997-.228.959-.706 1.882-1.462 2.596-1.35 1.17-2.549 2.483-3.494 3.933-.225.36-.432.737-.549 1.092-.04.12-.14.487-.25.688-.108.234-.234.439-.359.645-.512.805-1.109 1.513-1.75 2.185-1.292 1.274-2.757 2.645-4.779 2.815h-.022a.256.256 0 0 1-.045-.506l.045-.008c1.636-.288 3.008-1.617 4.172-2.881.577-.66 1.117-1.367 1.541-2.107.233-.414.333-.653.465-1.142.164-.505.4-.923.647-1.33 1.013-1.586 2.275-2.972 3.64-4.176 1.088-1.054 1.601-3 1.127-4.403l-.015-.046a.513.513 0 0 1 .486-.677"/><path fill="#fff" d="M409.664 180.418c-19.848-33.068-67.6-82.887-139-82.997-3.1.004-6.154.105-9.165.292.813 1.616 1.21 3.373 1.044 4.906-.91 8.42-10.992 12.497-10.466 17.974 1.138 11.831 14.334 8.873 17.064 16.188 1.662 4.453 5.005 5.654 5.005 5.654s-3.64.058-2.73 2.077c.91 2.018 4.55 3.015 5.46 7.408 0 0-5.005-1.977-3.867 3.711s4.323 10.475 6.143 13.77 4.778 8.754.682 14.67c-4.095 5.915-3.412 11.148-1.592 13.878s-2.048 3.868-4.551 7.963c-2.502 4.096-2.957 7.963-2.502 10.466s-2.958 6.826-2.731 11.15c.228 4.321 2.048 9.782 5.006 12.512s-1.133 6.227-3.185 7.736c-2.706 1.99-7.936 8.325 3.454 15.606 69.7-1.505 116.368-50.372 135.93-82.964"/><path d="M270.278 247.776c2.053-1.51 6.143-5.005 3.185-7.736s-4.778-8.19-5.005-12.513 3.185-8.646 2.73-11.148c-.455-2.503 0-6.371 2.503-10.466 2.502-4.096 6.37-5.233 4.55-7.963s-2.503-7.963 1.593-13.88c4.095-5.914 1.137-11.375-.683-14.67-1.82-3.293-5.005-8.081-6.143-13.77-1.137-5.687 3.868-3.71 3.868-3.71-.91-4.392-4.55-5.39-5.46-7.408s2.73-2.077 2.73-2.077-3.344-1.201-5.006-5.654c-2.73-7.314-15.926-4.356-17.063-16.187-.527-5.478 9.555-9.556 10.465-17.974.166-1.534-.23-3.29-1.044-4.907-66.328 4.115-110.848 51.073-129.835 82.705 19.85 33.068 67.6 82.888 139 82.998q1.542-.002 3.07-.034c-11.39-7.28-6.16-13.617-3.455-15.606M368 147.004h-8v24h8zm-17 0h-8v24h8zm-17 0h-8v24h8zm-17 0h-8v24h8zm-17 0h-8v24h8z"/><path d="M283 147.004h-8v24h8zm85 42h-8v24h8zm-17 0h-8v24h8zm-17 0h-8v24h8zm-17 0h-8v24h8zm-17 0h-8v24h8zm-17 0h-8v24h8z"/><path fill="#fff" d="M180 147.004h-8v24h8zm17 0h-8v24h8zm17 0h-8v24h8zm17 0h-8v24h8zm17 0h-8v24h8zm17 0h-8v24h8zm-85 42h-8v24h8zm17 0h-8v24h8zm17 0h-8v24h8zm17 0h-8v24h8zm17 0h-8v24h8zm17 0h-8v24h8z"/><path d="M219.818 160.103c-.043 0-4.276-.053-4.276-4.599 0-.368-.404-.555-1.2-.555-.687 0-1.388.154-1.395.155l-.157.035-.54-.719c.075 1.266.076 3.572-.764 4.771l-.164.235-.21-.195c-.086-.08-1.924-1.802-2.277-3.388l-1.205 1.055-.126-.34c-.283-.766-1.197-2.706-2.191-3.02l-.81 1.942-.211-.056c-.095-.026-2.154-.593-2.902-2.253-.226.313-.605.782-1.205 1.383l-.472.472.045-.666c.088-1.275.18-4.772-.437-5.636-.658-.922-.133-2.442.289-3.664.146-.422.27-.786.312-1.032.044-.264-.143-.778-.341-1.322-.433-1.19-1.026-2.822-.097-4.099.454-.624.888-1.149 1.274-1.617.687-.83 1.23-1.487 1.425-2.17l.028-.096 2.883-1.696h.068q.288.002.606.014c.225.008.46.017.705.017.997 0 2.176-.13 3.362-1.102 1.443-1.18 3.41-1.858 5.396-1.858 1.184 0 2.379.233 3.55.692l.84.33c3.439 1.352 7.719 3.035 10.505 3.035h.117l.075.09c.059.07 1.445 1.753 1.206 3.213a1.85 1.85 0 0 1-.707 1.182c.262.264.86.726 1.91.831l.788.08-.69.386c-.09.05-2.026 1.128-4.147 1.308l1.367.736.008.14c.005.081.15 2 2.412 2 .35 0 .737-.046 1.15-.136l.765-.167-.526.58c-.148.162-1.314 1.428-2.182 1.871.402.432 1.334 1.264 2.554 1.264q.112 0 .228-.01l.348-.029-.085.34c-.046.186-1.18 4.615-3.95 6.896l-.128.106-2.69-1.424-1.522 2.201-.208-.285c-.341-.469-1.411-1.712-2.25-1.832-.762-.109-1.79-1.015-2.48-1.71.326 1.24.78 3.447.672 5.822l-.01.24h-2.367l.322 2.254Z"/><path fill="#7c878e" d="M215.231 129.85c-2.043 0-4.067.698-5.554 1.915-1.126.92-2.251 1.045-3.203 1.045-.242 0-.475-.01-.697-.016a17 17 0 0 0-.616-.015h-.136l-.117.069-2.738 1.61-.172.102-.055.192c-.181.633-.709 1.27-1.378 2.08-.386.467-.824.997-1.284 1.629-1.007 1.384-.387 3.088.065 4.33.17.468.363.998.329 1.197-.037.225-.165.597-.301.99-.441 1.277-.99 2.866-.256 3.892.51.715.51 3.736.391 5.473l-.092 1.332.944-.944c.436-.436.758-.803.991-1.096.906 1.489 2.782 2.006 2.875 2.03l.423.114.168-.404.627-1.504c.703.419 1.459 1.784 1.824 2.774l.252.68.547-.477.636-.557c.522 1.496 2.034 2.935 2.238 3.124l.42.39.329-.47c.72-1.028.853-2.805.837-4.127l.158.21.315-.07c.006 0 .683-.148 1.341-.148.159 0 .949.015.949.305 0 4.793 4.482 4.849 4.527 4.849h.577l-.082-.571-.241-1.684h2.317l.022-.477c.088-1.941-.194-3.772-.48-5.068.638.567 1.385 1.103 2.004 1.19.666.097 1.631 1.114 2.082 1.733l.415.569.401-.578 1.196-1.73 2.346 1.243.295.156.257-.212c2.833-2.333 3.985-6.84 4.033-7.03l.169-.677-.696.058q-.105.009-.207.009c-.943 0-1.707-.548-2.15-.962.83-.533 1.744-1.514 1.963-1.756l1.052-1.157-1.528.332c-.397.087-.766.13-1.097.13-1.985 0-2.151-1.585-2.163-1.766l-.019-.275-.243-.134-.567-.305c1.852-.332 3.394-1.19 3.474-1.235l1.379-.775-1.575-.158c-.764-.077-1.267-.355-1.561-.585a2.1 2.1 0 0 0 .58-1.14c.257-1.57-1.199-3.338-1.261-3.413l-.15-.18h-.234c-2.74 0-6.998-1.674-10.419-3.02l-.834-.327a10 10 0 0 0-3.642-.71m0 .5c1.078 0 2.243.199 3.459.675 3.705 1.45 8.376 3.382 11.436 3.382 0 0 2.416 2.899.322 4.188 0 0 .644.966 2.255 1.127 0 0-2.313 1.3-4.611 1.3q-.192 0-.382-.011l2.094 1.127s.124 2.235 2.662 2.235c.352 0 .751-.043 1.203-.141 0 0-1.611 1.772-2.416 1.933 0 0 1.179 1.62 2.973 1.62q.123 0 .248-.01s-1.127 4.51-3.865 6.765l-2.738-1.45-1.45 2.094s-1.288-1.772-2.416-1.933-3.06-2.416-3.06-2.416 1.128 3.222.967 6.765h-2.416l.322 2.255s-4.027 0-4.027-4.35c0-.643-.724-.804-1.449-.804s-1.45.16-1.45.16l-.966-1.288s.483 3.866-.644 5.477c0 0-2.255-2.094-2.255-3.705l-1.289 1.128s-1.127-3.061-2.577-3.222l-.805 1.933s-2.416-.644-2.899-2.577c0 0-.322.644-1.449 1.772 0 0 .322-4.671-.484-5.798-.805-1.128.484-3.544.645-4.51s-1.772-3.543-.484-5.315 2.416-2.738 2.738-3.865l2.738-1.611c.397 0 .839.03 1.313.03 1.066 0 2.293-.154 3.519-1.157 1.19-.974 3.034-1.802 5.238-1.802"/><path fill="#7c878e" d="M215.118 131.27a5 5 0 0 1 1.113.119c.507.116.998.332 1.417.636.382.29.693.454 1.126.614 1.231.418 2.591.625 3.934.625q.715 0 1.416-.078l.012-.001.028-.002a.257.257 0 0 1 .045.51 11.5 11.5 0 0 1-2.014.166q-.418 0-.835-.023c-.949-.055-1.897-.174-2.836-.467a4.8 4.8 0 0 1-1.344-.653 3.05 3.05 0 0 0-1.134-.446 4 4 0 0 0-.682-.06c-.608 0-1.242.126-1.877.282a.514.514 0 1 1-.25-.998l.027-.006c.59-.115 1.214-.218 1.854-.218m-2.418 1.48q.107 0 .212.047c1.216.556 2.016 1.249 2.965 1.873.916.615 1.864 1.22 2.837 1.508.332.099.723.129 1.142.129.644 0 1.352-.071 2.005-.071h.046c1.087-.08 2.256-.131 3.044-.723l.028-.021a.255.255 0 0 1 .358.051.256.256 0 0 1-.022.333c-.942.956-2.222 1.048-3.332 1.218l-1.699.18a5 5 0 0 1-.756.057 3.7 3.7 0 0 1-1.096-.15c-1.208-.348-2.194-.987-3.159-1.611-.951-.596-1.891-1.392-2.722-1.81l-.081-.041a.51.51 0 0 1 .23-.968m-4.989 1.287.188.529.186.53-.032-.088.015.044h-.002l-.005.003-.009.003-.018.007-.037.014-.074.028-.147.056c-.099.037-.198.07-.293.12-.19.094-.387.178-.57.294a8 8 0 0 0-1.08.728 12 12 0 0 0-1.887 1.862 14.4 14.4 0 0 0-2.565 4.686.256.256 0 0 1-.493-.145 15.1 15.1 0 0 1 2.45-5.017 13 13 0 0 1 1.923-2.082 9 9 0 0 1 1.156-.86c.2-.137.42-.246.635-.363.105-.061.22-.11.334-.157l.171-.074.085-.037.043-.018.022-.01.01-.004.006-.002.002-.001.016.044z"/><path fill="#7c878e" d="M208.995 135.11c.369 0 .728.035 1.062.074l.037.004a.516.516 0 0 1-.121 1.024l-.043-.007a5 5 0 0 0-.982-.106c-1.076 0-1.998.422-2.5 1.419-.641 1.213-.792 2.836-1.192 4.307-.735 2.962-1.51 6.103-3.606 8.535a.256.256 0 0 1-.362.027.256.256 0 0 1-.032-.357l.008-.01c1.904-2.329 2.6-5.409 3.239-8.362l.449-2.254c.136-.737.317-1.569.703-2.313.369-.748 1.048-1.451 1.902-1.746a4.1 4.1 0 0 1 1.438-.235"/><path fill="#7c878e" d="M207.897 137.097c.241 0 .456.17.504.416l.004.018c.405 2.545.367 5.06.227 7.57a44 44 0 0 1-.385 3.75c-.197 1.245-.418 2.488-.917 3.697a.258.258 0 0 1-.479-.188l.008-.018c.417-1.115.603-2.355.751-3.575a43 43 0 0 0 .251-3.7c.057-2.465-.002-4.97-.467-7.342l-.002-.015a.513.513 0 0 1 .505-.613m-1.267-1.458a.513.513 0 0 1 .419.81l-.003.004-.033.046c-.544.754-.66 2.11-.737 3.275-.068 1.212-.044 2.442-.011 3.675.034 1.224.11 2.494-.05 3.758-.181 1.22-.41 2.622-1.548 3.514a.255.255 0 0 1-.36-.043.256.256 0 0 1 .04-.358l.02-.017c.858-.696 1.095-1.996 1.208-3.162.11-1.202-.002-2.412-.08-3.657-.077-1.238-.145-2.483-.118-3.745.009-.63.05-1.265.144-1.91.103-.64.218-1.305.689-1.972a.51.51 0 0 1 .42-.218m3.035 2.099c.217 0 .42.139.49.356l.004.015c.437 1.507.618 2.99.781 4.483.152 1.49.246 2.98.306 4.472.107 2.98.12 5.966-.192 8.95a.257.257 0 0 1-.255.23h-.027a.265.265 0 0 1-.23-.282c.222-2.936.125-5.91-.066-8.857a72 72 0 0 0-.43-4.408c-.198-1.453-.43-2.926-.863-4.263l-.008-.023a.514.514 0 0 1 .49-.673m1.741-3.7a.5.5 0 0 1 .2.041c1.846.78 3.327 1.814 4.897 2.846a48 48 0 0 1 4.442 3.382c1.408 1.186 2.842 2.325 4.425 3.22 1.57.906 3.308 1.514 5.105 1.736a.257.257 0 0 1 .228.283.26.26 0 0 1-.26.23l-.021-.002c-1.88-.186-3.712-.782-5.362-1.685-1.661-.887-3.161-2.027-4.603-3.186a47 47 0 0 0-4.451-3.228c-1.53-.966-3.148-1.999-4.726-2.62l-.063-.025a.513.513 0 0 1 .189-.992m.004 1.738c.168 0 .332.082.43.232l.005.008.058.093c.903 1.451 2.425 2.815 3.82 4.082a85 85 0 0 0 4.456 3.67 71 71 0 0 0 4.717 3.326c1.61.995 3.31 2.085 5.085 2.424l.059.011a.255.255 0 0 1-.091.502c-2.058-.348-3.708-1.42-5.393-2.39a72 72 0 0 1-4.84-3.257 85 85 0 0 1-4.584-3.608c-1.471-1.307-2.96-2.482-4.15-4.3a.512.512 0 0 1 .429-.793"/><path fill="#7c878e" d="M208.835 136.29c.111 0 .223.036.317.11l.01.008c1.668 1.378 2.744 3.012 3.918 4.63a70 70 0 0 1 3.175 5.036 47 47 0 0 1 1.403 2.633c.417.919.883 1.766 1.029 2.915-.083 2.04-.364 3.958-1.055 5.93a.254.254 0 0 1-.482-.161l.022-.068c.57-1.758.85-3.805.873-5.696-.125-.813-.593-1.755-1.02-2.605a46 46 0 0 0-1.436-2.558 69 69 0 0 0-3.243-4.904c-1.155-1.545-2.362-3.201-3.776-4.311l-.052-.041a.512.512 0 0 1 .317-.918"/><path fill="#7c878e" d="M209.183 139.837c.206 0 .4.124.479.328l.004.01.006.017c1.09 3.032 2.666 5.958 4.553 8.595.482.648.994 1.286 1.567 1.804.576.44 1.363.996 1.922 1.576 1.193 1.192 2.303 2.379 3.22 3.867a.255.255 0 0 1-.431.274l-.03-.044c-.848-1.3-2.03-2.53-3.198-3.628-.613-.587-1.195-.964-1.941-1.506-.666-.572-1.204-1.218-1.724-1.877-2.016-2.674-3.68-5.572-4.906-8.714a.516.516 0 0 1 .479-.702m4.828-6.795a.5.5 0 0 1 .204.042c2.729 1.18 5.352 2.592 7.774 4.327 1.238.836 2.287 1.967 3.376 2.852a3.97 3.97 0 0 0 2.655.988 4.8 4.8 0 0 0 1.238-.169.26.26 0 0 1 .316.181.257.257 0 0 1-.181.315l-.01.003c-.509.13-1.044.227-1.588.227q-.353 0-.709-.06c-.789-.125-1.504-.522-2.108-.972-1.215-.934-2.202-1.954-3.432-2.734-2.406-1.619-5.027-2.934-7.721-4.006a.515.515 0 0 1 .186-.994m-4.346 3.094c.176 0 .347.09.443.252l.005.01.007.012c1.73 3.1 4.605 5.45 7.338 7.873 1.41 1.27 2.499 2.697 3.864 3.91 1.325 1.194 2.722 2.508 4.352 3.035l.038.012a.257.257 0 0 1-.153.49c-1.898-.577-3.268-1.876-4.671-3.062-1.404-1.191-2.596-2.661-3.94-3.806-2.76-2.346-5.77-4.646-7.725-7.95a.514.514 0 0 1 .442-.776"/></svg>